<mxfile host="app.diagrams.net" modified="2023-11-17T21:38:41.239Z" agent="Mozilla/5.0 (Windows NT 10.0; Win64; x64; rv:109.0) Gecko/20100101 Firefox/119.0" etag="VvavXy5YH393TqV9rAzY" version="22.1.2" type="device">
  <diagram name="Página-1" id="agOniC0aJA_BBccGeIce">
    <mxGraphModel dx="1194" dy="716" grid="1" gridSize="10" guides="1" tooltips="1" connect="1" arrows="1" fold="1" page="1" pageScale="1" pageWidth="827" pageHeight="1169" math="0" shadow="0">
      <root>
        <mxCell id="0" />
        <mxCell id="1" parent="0" />
        <mxCell id="Nz8OvPGLOvfSOU8vJvpS-8" value="" style="rounded=1;whiteSpace=wrap;html=1;fillColor=#d5e8d4;strokeColor=#82b366;" vertex="1" parent="1">
          <mxGeometry x="430" y="60" width="240" height="60" as="geometry" />
        </mxCell>
        <mxCell id="Nz8OvPGLOvfSOU8vJvpS-1" value="" style="rounded=1;whiteSpace=wrap;html=1;fillColor=#fad7ac;strokeColor=#b46504;" vertex="1" parent="1">
          <mxGeometry x="40" y="300" width="240" height="60" as="geometry" />
        </mxCell>
        <mxCell id="Nz8OvPGLOvfSOU8vJvpS-7" value="VOZ" style="text;html=1;align=center;verticalAlign=middle;whiteSpace=wrap;rounded=0;fontStyle=1;fontSize=14;" vertex="1" parent="1">
          <mxGeometry x="460" y="75" width="180" height="30" as="geometry" />
        </mxCell>
        <mxCell id="Nz8OvPGLOvfSOU8vJvpS-9" value="" style="rounded=1;whiteSpace=wrap;html=1;fillColor=#f8cecc;strokeColor=#b85450;" vertex="1" parent="1">
          <mxGeometry x="430" y="420" width="240" height="60" as="geometry" />
        </mxCell>
        <mxCell id="Nz8OvPGLOvfSOU8vJvpS-10" value="" style="rounded=1;whiteSpace=wrap;html=1;fillColor=#dae8fc;strokeColor=#6c8ebf;" vertex="1" parent="1">
          <mxGeometry x="430" y="180" width="240" height="60" as="geometry" />
        </mxCell>
        <mxCell id="Nz8OvPGLOvfSOU8vJvpS-11" value="" style="rounded=1;whiteSpace=wrap;html=1;fillColor=#e1d5e7;strokeColor=#9673a6;" vertex="1" parent="1">
          <mxGeometry x="430" y="300" width="240" height="60" as="geometry" />
        </mxCell>
        <mxCell id="Nz8OvPGLOvfSOU8vJvpS-12" value="" style="rounded=1;whiteSpace=wrap;html=1;fillColor=#fad7ac;strokeColor=#b46504;" vertex="1" parent="1">
          <mxGeometry x="430" y="524.5" width="240" height="60" as="geometry" />
        </mxCell>
        <mxCell id="Nz8OvPGLOvfSOU8vJvpS-14" value="CLASSIFICAÇÃO DE TRÀFEGO" style="text;html=1;align=center;verticalAlign=middle;whiteSpace=wrap;rounded=0;fontStyle=1;fontSize=14;" vertex="1" parent="1">
          <mxGeometry x="70" y="315" width="180" height="30" as="geometry" />
        </mxCell>
        <mxCell id="Nz8OvPGLOvfSOU8vJvpS-15" value="MISSÂO CRÌTICA" style="text;html=1;align=center;verticalAlign=middle;whiteSpace=wrap;rounded=0;fontStyle=1;fontSize=14;" vertex="1" parent="1">
          <mxGeometry x="460" y="195" width="180" height="30" as="geometry" />
        </mxCell>
        <mxCell id="Nz8OvPGLOvfSOU8vJvpS-16" value="TRANSIÇÃO" style="text;html=1;align=center;verticalAlign=middle;whiteSpace=wrap;rounded=0;fontStyle=1;fontSize=14;" vertex="1" parent="1">
          <mxGeometry x="460" y="315" width="180" height="30" as="geometry" />
        </mxCell>
        <mxCell id="Nz8OvPGLOvfSOU8vJvpS-17" value="MELHOR ESFORÇO" style="text;html=1;align=center;verticalAlign=middle;whiteSpace=wrap;rounded=0;fontStyle=1;fontSize=14;" vertex="1" parent="1">
          <mxGeometry x="460" y="435" width="180" height="30" as="geometry" />
        </mxCell>
        <mxCell id="Nz8OvPGLOvfSOU8vJvpS-18" value="SCAVENGER" style="text;html=1;align=center;verticalAlign=middle;whiteSpace=wrap;rounded=0;fontStyle=1;fontSize=14;" vertex="1" parent="1">
          <mxGeometry x="460" y="539.5" width="180" height="30" as="geometry" />
        </mxCell>
        <mxCell id="Nz8OvPGLOvfSOU8vJvpS-19" value="Email" style="text;html=1;align=center;verticalAlign=middle;whiteSpace=wrap;rounded=0;fontStyle=1;fontSize=15;fontColor=#fd829a;" vertex="1" parent="1">
          <mxGeometry x="130" y="156" width="180" height="30" as="geometry" />
        </mxCell>
        <mxCell id="Nz8OvPGLOvfSOU8vJvpS-21" value="" style="endArrow=none;html=1;rounded=0;exitX=0.833;exitY=0;exitDx=0;exitDy=0;exitPerimeter=0;fillColor=#f8cecc;strokeColor=#b85450;strokeWidth=3;" edge="1" parent="1">
          <mxGeometry width="50" height="50" relative="1" as="geometry">
            <mxPoint x="239.92000000000007" y="300" as="sourcePoint" />
            <mxPoint x="220" y="180" as="targetPoint" />
          </mxGeometry>
        </mxCell>
        <mxCell id="Nz8OvPGLOvfSOU8vJvpS-22" value="APLICAÇÃO" style="text;html=1;align=center;verticalAlign=middle;whiteSpace=wrap;rounded=0;fontStyle=1;fontSize=15;fontColor=#CC99FF;" vertex="1" parent="1">
          <mxGeometry x="42" y="188" width="180" height="30" as="geometry" />
        </mxCell>
        <mxCell id="Nz8OvPGLOvfSOU8vJvpS-23" value="" style="endArrow=none;html=1;rounded=0;fillColor=#e1d5e7;strokeColor=#9673a6;exitX=0.75;exitY=0;exitDx=0;exitDy=0;entryX=0.75;entryY=1;entryDx=0;entryDy=0;strokeWidth=3;startArrow=none;startFill=0;" edge="1" parent="1" source="Nz8OvPGLOvfSOU8vJvpS-1">
          <mxGeometry width="50" height="50" relative="1" as="geometry">
            <mxPoint x="214.07999999999993" y="296" as="sourcePoint" />
            <mxPoint x="137" y="212" as="targetPoint" />
          </mxGeometry>
        </mxCell>
        <mxCell id="Nz8OvPGLOvfSOU8vJvpS-24" value="" style="endArrow=none;html=1;rounded=0;fillColor=#f8cecc;strokeColor=#b85450;strokeWidth=3;startArrow=classic;startFill=1;exitX=0;exitY=0.5;exitDx=0;exitDy=0;entryX=1;entryY=0.5;entryDx=0;entryDy=0;" edge="1" parent="1" source="Nz8OvPGLOvfSOU8vJvpS-9" target="Nz8OvPGLOvfSOU8vJvpS-1">
          <mxGeometry width="50" height="50" relative="1" as="geometry">
            <mxPoint x="400" y="435" as="sourcePoint" />
            <mxPoint x="280" y="355" as="targetPoint" />
          </mxGeometry>
        </mxCell>
        <mxCell id="Nz8OvPGLOvfSOU8vJvpS-25" value="" style="endArrow=none;html=1;rounded=0;fillColor=#e1d5e7;strokeColor=#9673a6;strokeWidth=3;startArrow=classic;startFill=1;exitX=0;exitY=0.5;exitDx=0;exitDy=0;" edge="1" parent="1" source="Nz8OvPGLOvfSOU8vJvpS-11">
          <mxGeometry width="50" height="50" relative="1" as="geometry">
            <mxPoint x="420" y="320" as="sourcePoint" />
            <mxPoint x="280" y="330" as="targetPoint" />
          </mxGeometry>
        </mxCell>
        <mxCell id="Nz8OvPGLOvfSOU8vJvpS-27" value="" style="endArrow=none;html=1;rounded=0;fillColor=#d5e8d4;strokeColor=#82b366;strokeWidth=3;startArrow=classic;startFill=1;exitX=0;exitY=0.75;exitDx=0;exitDy=0;entryX=1;entryY=0.5;entryDx=0;entryDy=0;" edge="1" parent="1" source="Nz8OvPGLOvfSOU8vJvpS-8" target="Nz8OvPGLOvfSOU8vJvpS-1">
          <mxGeometry width="50" height="50" relative="1" as="geometry">
            <mxPoint x="430" y="310" as="sourcePoint" />
            <mxPoint x="280" y="310" as="targetPoint" />
          </mxGeometry>
        </mxCell>
        <mxCell id="Nz8OvPGLOvfSOU8vJvpS-28" value="E-COMERCE" style="text;html=1;align=center;verticalAlign=middle;whiteSpace=wrap;rounded=0;fontStyle=1;fontSize=15;fontColor=#99CCFF;" vertex="1" parent="1">
          <mxGeometry x="4" y="435" width="180" height="30" as="geometry" />
        </mxCell>
        <mxCell id="Nz8OvPGLOvfSOU8vJvpS-29" value="" style="endArrow=none;html=1;rounded=0;fillColor=#d5e8d4;strokeColor=#82b366;entryX=0.75;entryY=1;entryDx=0;entryDy=0;strokeWidth=3;startArrow=none;startFill=0;" edge="1" parent="1" source="Nz8OvPGLOvfSOU8vJvpS-30">
          <mxGeometry width="50" height="50" relative="1" as="geometry">
            <mxPoint x="170" y="435" as="sourcePoint" />
            <mxPoint x="247" y="361" as="targetPoint" />
          </mxGeometry>
        </mxCell>
        <mxCell id="Nz8OvPGLOvfSOU8vJvpS-30" value="APLICAÇÃO" style="text;html=1;align=center;verticalAlign=middle;whiteSpace=wrap;rounded=0;fontStyle=1;fontSize=15;fontColor=#B9E0A5;" vertex="1" parent="1">
          <mxGeometry x="130" y="423" width="180" height="30" as="geometry" />
        </mxCell>
        <mxCell id="Nz8OvPGLOvfSOU8vJvpS-31" value="" style="endArrow=none;html=1;rounded=0;fillColor=#dae8fc;strokeColor=#6c8ebf;entryX=0.642;entryY=0.967;entryDx=0;entryDy=0;strokeWidth=3;startArrow=none;startFill=0;exitX=0.5;exitY=0;exitDx=0;exitDy=0;entryPerimeter=0;" edge="1" parent="1" target="Nz8OvPGLOvfSOU8vJvpS-1">
          <mxGeometry width="50" height="50" relative="1" as="geometry">
            <mxPoint x="90" y="440" as="sourcePoint" />
            <mxPoint x="198.96000000000004" y="364.98" as="targetPoint" />
          </mxGeometry>
        </mxCell>
        <mxCell id="Nz8OvPGLOvfSOU8vJvpS-34" value="" style="endArrow=none;html=1;rounded=0;fillColor=#dae8fc;strokeColor=#6c8ebf;strokeWidth=3;startArrow=classic;startFill=1;exitX=0;exitY=0.367;exitDx=0;exitDy=0;exitPerimeter=0;" edge="1" parent="1" source="Nz8OvPGLOvfSOU8vJvpS-10">
          <mxGeometry width="50" height="50" relative="1" as="geometry">
            <mxPoint x="440" y="115" as="sourcePoint" />
            <mxPoint x="280" y="330" as="targetPoint" />
          </mxGeometry>
        </mxCell>
        <mxCell id="Nz8OvPGLOvfSOU8vJvpS-35" value="" style="endArrow=none;html=1;rounded=0;fillColor=#ffe6cc;strokeColor=#d79b00;strokeWidth=3;startArrow=classic;startFill=1;exitX=0;exitY=0.25;exitDx=0;exitDy=0;entryX=1;entryY=0.5;entryDx=0;entryDy=0;" edge="1" parent="1" source="Nz8OvPGLOvfSOU8vJvpS-12" target="Nz8OvPGLOvfSOU8vJvpS-1">
          <mxGeometry width="50" height="50" relative="1" as="geometry">
            <mxPoint x="439" y="481" as="sourcePoint" />
            <mxPoint x="289" y="361" as="targetPoint" />
          </mxGeometry>
        </mxCell>
      </root>
    </mxGraphModel>
  </diagram>
</mxfile>
